<svg width="85" height="85" viewBox="0 0 85 85" fill="none" xmlns="http://www.w3.org/2000/svg">
<path fill-rule="evenodd" clip-rule="evenodd" d="M37.2926 0.183767C36.8139 0.475069 36.81 0.641228 37.2518 1.95052C37.5952 2.96831 37.9171 4.12914 37.9775 4.56757C38.0099 4.8031 38.1164 5.25276 38.2142 5.56681C38.312 5.88086 38.4193 6.41616 38.4525 6.75638C38.4859 7.0966 38.5735 7.56767 38.6471 7.8032C38.7209 8.03873 38.8478 8.87381 38.9292 9.65893C39.0106 10.444 39.1243 11.4504 39.1818 11.8953C39.3202 12.966 39.3181 19.1267 39.179 20.1747C39.1199 20.6196 39.0139 21.5404 38.9433 22.2208C38.8068 23.5364 38.4865 25.401 38.2487 26.2653C38.1695 26.5532 38.0639 27.0671 38.0141 27.4073C37.9643 27.7475 37.8604 28.1758 37.7832 28.359C37.7059 28.5422 37.5753 28.9892 37.4929 29.3525C37.4105 29.7156 37.2764 30.1653 37.1948 30.3517C37.1132 30.5381 37.0126 30.8404 36.9712 31.0236C36.8638 31.4982 36.5088 32.546 36.3478 32.8632C36.2726 33.0114 36.2111 33.1729 36.2111 33.2222C36.2111 33.329 35.5757 34.9655 35.4455 35.1939C35.3954 35.2818 35.1866 35.7422 34.9814 36.2172C34.7761 36.692 34.3841 37.5271 34.1101 38.0729C33.8362 38.6186 33.5267 39.2364 33.4223 39.4458C33.3179 39.6551 33.1791 39.8907 33.1138 39.9692C33.0486 40.0477 32.8323 40.4117 32.6331 40.7781C32.434 41.1444 32.1972 41.5512 32.107 41.6821C32.0167 41.813 31.5722 42.4768 31.1191 43.1572C28.8055 46.6317 27.993 47.578 22.8612 52.7757C20.9971 54.6637 17.8839 57.8298 15.9429 59.8117C14.0019 61.7935 11.6306 64.2069 10.6732 65.1746C8.58482 67.2857 8.63442 67.1452 9.56008 68.3325C9.90516 68.7752 10.3325 69.3326 10.5096 69.5711C10.9004 70.0975 11.2189 70.2909 11.472 70.1557C11.5703 70.1031 12.4234 69.275 13.3676 68.3156C14.3119 67.3561 16.5802 65.0501 18.4085 63.1911C21.7255 59.8182 27.3065 54.1543 30.9175 50.4958C33.0841 48.3009 34.6267 46.6561 35.3009 45.8219C35.5547 45.5078 35.7903 45.2294 35.8244 45.2033C35.8584 45.1771 36.3421 44.5855 36.8991 43.8885C38.3865 42.0277 39.829 40.0147 40.9538 38.2299C41.3093 37.6659 41.7145 37.0235 41.8545 36.8024C42.7472 35.3915 44.9183 31.2652 45.646 29.5961C45.8628 29.0989 46.1249 28.5337 46.2285 28.3401C46.3321 28.1466 46.4168 27.9168 46.4168 27.8297C46.4168 27.7425 46.5016 27.5154 46.6052 27.3251C46.7089 27.1348 46.8545 26.8078 46.9288 26.5984C47.003 26.389 47.2345 25.7681 47.4431 25.2185C47.9746 23.8186 48.1389 23.3387 48.2745 22.7896C48.3393 22.5266 48.463 22.1755 48.5492 22.0091C48.6354 21.8429 48.7059 21.5959 48.7059 21.4604C48.7059 21.3249 48.7906 21.0483 48.8942 20.8458C48.9976 20.6433 49.1085 20.2918 49.1404 20.0645C49.1724 19.8373 49.2807 19.4372 49.3813 19.1755C49.4817 18.9138 49.6028 18.507 49.6503 18.2714C49.7351 17.8508 49.9493 16.9241 50.3317 15.3213C50.438 14.8764 50.5483 14.2768 50.577 13.989C50.6058 13.7011 50.7115 13.1255 50.8122 12.7099C50.9127 12.2943 50.995 11.7538 50.995 11.5089C50.995 11.2639 51.0854 10.5547 51.1961 9.93301C51.3066 9.31119 51.436 8.16007 51.4836 7.37495C51.5312 6.58984 51.6179 5.39075 51.6762 4.71032C51.7345 4.02988 51.7875 2.90189 51.794 2.20366C51.8052 0.993055 51.7957 0.926154 51.5901 0.76009C51.348 0.56462 50.658 0.391419 49.8027 0.311289C49.488 0.281788 49.1458 0.19966 49.0423 0.128666C48.8892 0.0236036 47.8069 -0.000282979 43.2241 2.51739e-06C37.8331 0.000288014 37.5813 0.0080916 37.2926 0.183767ZM23.5733 4.61563C23.0487 4.89951 22.5122 5.18434 22.381 5.24867C22.2499 5.313 22.0782 5.4174 21.9995 5.48059C21.9208 5.54378 21.6468 5.71137 21.3905 5.85307C20.9172 6.11477 20.0115 6.69871 19.2335 7.24372C18.9974 7.40912 18.5253 7.7383 18.1843 7.97516C17.4471 8.48735 17.0133 8.82851 16.2852 9.4686C15.9876 9.7303 15.4892 10.1585 15.1776 10.4203C14.4716 11.0132 12.5771 12.8994 11.9254 13.6582C10.5916 15.2111 10.0024 15.9154 9.72365 16.2903C9.55559 16.5163 9.27041 16.8989 9.09014 17.1407C8.48496 17.9517 6.96088 20.31 6.53778 21.0898C6.30734 21.5147 5.96321 22.1356 5.77302 22.4697C5.58283 22.8039 5.20541 23.5912 4.93415 24.2193C4.66299 24.8474 4.39535 25.4431 4.33956 25.5432C4.28366 25.6432 4.15967 25.943 4.064 26.2094C3.96834 26.4756 3.75526 27.0362 3.59054 27.4549C3.42582 27.8736 3.2321 28.4303 3.1599 28.692C3.08779 28.9538 2.8564 29.6784 2.6457 30.3025C2.43501 30.9265 2.23557 31.6331 2.20238 31.8728C2.16928 32.1123 2.06589 32.5653 1.9727 32.8793C1.87952 33.1934 1.77222 33.7455 1.73435 34.1063C1.69648 34.4672 1.60664 34.9288 1.53472 35.1323C1.46271 35.3357 1.37601 35.897 1.34196 36.3795C1.30791 36.8621 1.22063 37.3518 1.14805 37.4677C0.944223 37.793 0.953857 46.966 1.15845 47.3574C1.23675 47.5073 1.30171 47.8441 1.30276 48.1058C1.30381 48.3675 1.39012 48.9885 1.49476 49.4857C1.59929 49.983 1.72872 50.6896 1.78242 51.056C1.83612 51.4223 1.94094 51.9362 2.01543 52.1979C2.08993 52.4597 2.21249 52.9307 2.28784 53.2448C2.44436 53.8968 2.82788 55.2081 3.06728 55.9094C3.15665 56.1711 3.27302 56.5137 3.32595 56.6707C3.64805 57.6266 3.79694 58.0085 3.87944 58.0908C3.93076 58.142 3.97272 58.2431 3.97272 58.3154C3.97272 58.5491 4.81006 60.4304 5.5876 61.9436C6.78834 64.2802 7.04148 64.7129 7.33916 64.9364C7.47832 65.0409 7.64895 65.0893 7.7573 65.055C7.85802 65.0231 8.34599 64.5604 8.84177 64.0268C9.33756 63.4932 11.0357 61.7483 12.6154 60.1491C16.5976 56.118 17.3286 55.3103 18.9069 53.1972C19.8133 51.9837 20.3331 51.2386 21.1977 49.914C21.6789 49.1765 21.7117 49.1234 22.0251 48.5711C22.1703 48.3152 22.4374 47.8489 22.6187 47.5348C22.9293 46.9969 24.2329 44.3901 24.7127 43.3475C24.8332 43.0858 25.0226 42.679 25.1336 42.4435C25.2446 42.2079 25.3978 41.8225 25.4739 41.587C25.5499 41.3514 25.6991 40.9232 25.8053 40.6353C26.4592 38.8624 26.6033 38.4336 26.7259 37.8961C26.8009 37.5673 26.9252 37.1768 27.002 37.0286C27.0789 36.8803 27.1829 36.5069 27.2333 36.199C27.2837 35.8911 27.3735 35.5128 27.433 35.3585C27.5801 34.9772 27.9881 32.9941 28.1558 31.846C28.2312 31.33 28.3388 30.7374 28.395 30.5291C28.4512 30.3209 28.5375 29.544 28.5867 28.8026C28.636 28.0614 28.7262 26.9838 28.7872 26.4081C28.9336 25.0265 28.9373 21.9264 28.794 20.5554C28.731 19.9535 28.6361 18.8565 28.5829 18.1177C28.5298 17.379 28.4003 16.3572 28.2951 15.8471C28.1899 15.337 28.1038 14.7823 28.1038 14.6143C28.1038 14.4464 28.0394 14.0929 27.9609 13.8287C27.8823 13.5645 27.7539 13.0107 27.6756 12.598C27.5974 12.1854 27.4077 11.3981 27.2542 10.8485C27.1006 10.2989 26.9233 9.65655 26.8602 9.42101C26.7275 8.92606 26.5493 8.35468 26.4002 7.94595C26.3428 7.78893 26.0522 6.96279 25.7543 6.11001C25.3258 4.88323 25.1546 4.51076 24.9342 4.32566C24.7809 4.197 24.6267 4.09355 24.5913 4.09564C24.556 4.09783 24.0979 4.33184 23.5733 4.61563ZM64.9503 6.35535C64.7975 6.45223 64.6396 6.88495 64.5259 7.5177C64.4742 7.80558 64.3457 8.34089 64.2404 8.70727C64.1351 9.07366 63.9689 9.65179 63.871 9.99201C63.4348 11.5087 63.1704 12.3576 62.9966 12.7994C62.8935 13.0611 62.647 13.7466 62.4487 14.3226C62.2503 14.8987 62.0171 15.5069 61.9305 15.6741C61.8438 15.8412 61.7716 16.0337 61.77 16.1016C61.7683 16.1697 61.6614 16.4395 61.5324 16.7012C61.4033 16.9629 61.2974 17.2328 61.2969 17.3009C61.2964 17.3691 61.213 17.5832 61.1114 17.7767C61.0098 17.9703 60.82 18.3642 60.6894 18.6521C60.2987 19.5136 58.2072 23.7068 57.9124 24.2193C56.6834 26.3564 54.0248 30.4802 53.7058 30.7444C53.6312 30.8061 53.5703 30.8965 53.5703 30.9452C53.5703 30.9939 53.3235 31.3358 53.0218 31.7052C52.7201 32.0744 52.3446 32.5575 52.1872 32.7786C51.7819 33.3483 50.6605 34.6865 49.192 36.3529C48.4465 37.1988 46.1989 39.5084 41.5052 44.2516C37.6632 48.1342 33.15 52.7097 27.5316 58.4184C25.4594 60.5239 22.3262 63.7003 20.5688 65.4772C15.9098 70.1879 13.7946 72.3541 13.696 72.5158C13.6482 72.5943 13.6084 72.7279 13.6075 72.8128C13.6053 73.0431 16.1492 75.4659 16.3933 75.4659C16.4563 75.4659 17.326 74.6416 18.3259 73.634C22.4584 69.4697 31.4873 60.3252 32.7298 59.0457C33.4642 58.2893 35.5277 56.2036 37.3154 54.4107C39.1031 52.618 40.7731 50.9156 41.0266 50.6277C41.4206 50.1801 48.6674 42.8329 57.8589 33.5621C61.1339 30.2588 62.2685 29.2273 65.1256 26.9555C66.6829 25.7172 66.9916 25.4866 68.2588 24.615C68.9145 24.1639 69.6269 23.6655 69.8419 23.5074C70.0569 23.3494 70.2612 23.22 70.2959 23.22C70.3306 23.22 70.5755 23.0682 70.8402 22.8827C71.1048 22.6971 71.4155 22.5035 71.5307 22.4527C71.6459 22.4018 71.9547 22.2265 72.217 22.0632C72.7493 21.7318 73.1764 21.4818 73.7431 21.1698C73.9529 21.0542 74.3906 20.8081 74.7157 20.6229C75.0408 20.4375 75.4057 20.2552 75.5264 20.2178C75.6473 20.1804 75.86 20.0698 75.9992 19.9719C76.1385 19.8741 76.2792 19.7941 76.312 19.7941C76.4573 19.7941 77.7821 19.1174 77.8895 18.9884C78.0422 18.8046 77.9618 18.4912 77.6555 18.0764C77.522 17.8958 77.1438 17.384 76.8149 16.9391C75.4184 15.0499 73.2336 12.535 72.1066 11.5195C71.8526 11.2907 71.3872 10.8637 71.0725 10.5707C69.972 9.54616 68.736 8.57509 66.7074 7.14113C65.5647 6.33346 65.2245 6.18129 64.9503 6.35535ZM81.8981 29.1526C81.6096 29.2161 81.3175 29.3031 81.249 29.3457C81.1806 29.3885 80.8158 29.4786 80.4383 29.546C79.6711 29.683 77.8472 30.1718 76.5091 30.5992C76.2468 30.683 75.8166 30.8066 75.5531 30.8739C75.2896 30.9413 74.9376 31.0668 74.7709 31.1527C74.6043 31.2388 74.408 31.3091 74.3347 31.3091C74.2614 31.3091 73.6906 31.5059 73.0662 31.7465C72.4417 31.9871 71.7476 32.2423 71.5234 32.3136C71.2993 32.3849 71.0214 32.5092 70.906 32.5899C70.7906 32.6705 70.6378 32.7366 70.5665 32.7366C70.3151 32.7366 67.2872 34.1098 65.8743 34.8647C65.7431 34.9347 65.3783 35.1232 65.0635 35.2835C64.1824 35.7322 63.6826 36.0034 63.0809 36.3594C62.7774 36.539 62.3826 36.7716 62.2037 36.8763C62.0247 36.981 61.5233 37.2807 61.0893 37.5424C60.6555 37.8042 60.1418 38.1119 59.9481 38.2263C59.6262 38.4164 59.1312 38.7526 57.9577 39.5782C57.7217 39.7444 57.4212 39.9525 57.2901 40.0409C56.8066 40.3667 54.7447 41.9261 54.1818 42.3915C53.8624 42.6556 53.3474 43.08 53.0373 43.3346C51.7361 44.4027 50.7559 45.3347 47.1746 48.9087C40.7605 55.3098 29.4102 66.8043 29.1896 67.1224C29.0744 67.2885 27.549 68.8472 25.7998 70.5861C20.7438 75.6125 19.2133 77.224 19.25 77.4825C19.2809 77.7004 20.4699 78.573 21.6881 79.2717C22.5009 79.7379 22.6375 79.6955 23.596 78.6778C24.3716 77.8542 26.0984 76.0987 34.8659 67.2195C36.7861 65.2748 40.0096 62.001 42.0293 59.9441C46.4532 55.4389 48.6412 53.2603 49.4621 52.5432C49.7994 52.2487 50.2715 51.8331 50.5113 51.6197C51.159 51.0436 52.2534 50.1781 53.1497 49.5333C54.8792 48.289 55.703 47.7209 55.9107 47.6288C56.0304 47.5758 56.2072 47.4642 56.3037 47.381C56.7452 47.0002 61.5842 44.442 61.863 44.442C61.9231 44.442 62.174 44.3349 62.4204 44.204C62.6667 44.0732 62.9271 43.9661 62.9991 43.9661C63.071 43.9661 63.286 43.8815 63.4768 43.7781C63.8101 43.5974 64.0561 43.5008 65.2066 43.099C65.4951 42.9982 65.86 42.8558 66.0173 42.7826C66.1747 42.7095 66.4752 42.6189 66.685 42.5814C66.8948 42.5439 67.1738 42.4596 67.305 42.394C67.4361 42.3285 67.8009 42.2221 68.1157 42.1576C68.4304 42.0931 68.8934 41.9597 69.1445 41.8613C69.3957 41.7628 69.7176 41.6822 69.8599 41.6824C70.0022 41.6826 70.4191 41.6013 70.7863 41.5017C71.1535 41.4021 71.8617 41.2499 72.3601 41.1636C72.8585 41.0772 73.4379 40.9653 73.6477 40.9147C73.8576 40.8642 74.6087 40.76 75.3169 40.683C76.0251 40.606 76.9479 40.4964 77.3675 40.4393C77.7932 40.3813 79.6159 40.3338 81.4899 40.3319C84.0163 40.3292 84.8734 40.2995 84.9461 40.212C85.0825 40.048 84.8931 37.2074 84.6697 36.0674C84.5722 35.5701 84.4669 34.9278 84.4355 34.6399C84.4042 34.352 84.2929 33.8381 84.1882 33.4979C84.0835 33.1577 83.9976 32.739 83.9972 32.5675C83.9967 32.396 83.8863 31.9035 83.7516 31.4731C83.6169 31.0426 83.4164 30.3996 83.3061 30.0442C83.1957 29.6886 83.0591 29.3376 83.0025 29.2642C82.8465 29.062 82.4792 29.0248 81.8981 29.1526ZM69.451 51.1241C69.1363 51.1698 68.4622 51.2695 67.9531 51.3456C67.444 51.4219 66.8716 51.4842 66.6812 51.4842C66.3476 51.4842 64.6299 51.8182 63.4421 52.114C63.1273 52.1924 62.6552 52.3018 62.3929 52.357C61.4978 52.5455 59.2919 53.1881 58.4536 53.5045C58.1755 53.6093 57.8107 53.7297 57.6429 53.7719C57.2545 53.8694 56.2024 54.2937 55.751 54.5346C55.5603 54.6365 55.3327 54.7198 55.2453 54.7198C55.158 54.7198 54.9277 54.8027 54.7337 54.904C54.5397 55.0052 53.6299 55.4581 52.7118 55.9104C51.7938 56.3626 50.8449 56.8472 50.6031 56.9872C50.3614 57.1271 49.8678 57.4095 49.5062 57.6146C48.8859 57.9666 46.553 59.4856 46.0352 59.8747C42.7215 62.365 41.9451 63.0897 34.2186 70.9063C30.3686 74.8011 26.6647 78.5432 25.9877 79.2219C24.5325 80.6811 24.5014 80.7754 25.3378 81.1951C26.0695 81.5621 26.9448 81.9372 27.0701 81.9372C27.1279 81.9372 27.309 82.0192 27.4726 82.1195C27.6362 82.2198 27.9314 82.3317 28.1287 82.3682C28.3261 82.4047 28.5102 82.4714 28.5381 82.5164C28.5659 82.5614 28.7694 82.6433 28.9901 82.6985C29.2108 82.7537 29.6704 82.9015 30.0114 83.0271C31.3807 83.5312 33.9178 84.2165 34.4466 84.225C34.604 84.2274 34.9044 84.2935 35.1143 84.3717C35.3241 84.4498 35.9101 84.5555 36.4165 84.6063C36.9228 84.6571 37.4594 84.7623 37.6087 84.84C38.0284 85.0584 48.2392 85.0508 48.6582 84.8318C48.8156 84.7495 49.3092 84.6487 49.7551 84.6078C50.201 84.5669 50.8556 84.4632 51.2096 84.3773C52.7364 84.007 53.1772 83.9054 53.7859 83.7833C54.1405 83.7122 54.5483 83.5941 54.692 83.5209C54.8357 83.4478 55.18 83.3399 55.4572 83.2814C55.7343 83.2229 56.1296 83.0892 56.3356 82.9843C56.5416 82.8795 56.7754 82.7937 56.8551 82.7937C57.0274 82.7937 58.147 82.3678 58.6384 82.1153C58.8291 82.0173 59.0409 81.9372 59.109 81.9372C59.346 81.9372 61.7394 80.7743 63.4898 79.8086C64.7456 79.1158 66.8522 77.7549 67.9284 76.941C70.7311 74.8215 73.733 71.9075 75.9183 69.185C76.5759 68.3659 77.8005 66.6423 78.3206 65.8037C78.6767 65.2295 79.0639 64.6099 79.181 64.4267C79.569 63.8199 80.5943 61.8578 80.9962 60.9532C81.1357 60.6391 81.3289 60.2109 81.4256 60.0015C81.6402 59.5368 82.0983 58.4566 82.354 57.8127C82.6376 57.0986 83.4945 54.3455 83.5674 53.9143C83.6025 53.7067 83.692 53.4197 83.7662 53.2766C83.9247 52.9707 83.9463 52.1895 83.7986 52.0985C83.6038 51.9783 81.8792 51.5867 81.2937 51.5297C80.9703 51.4982 80.2766 51.4121 79.752 51.3381C79.2274 51.2643 78.4763 51.1623 78.0829 51.1114C77.2085 50.9986 70.2459 51.0088 69.451 51.1241Z" fill="#D8D8D8"/>
</svg>
