<svg width="85" height="85" viewBox="0 0 85 85" fill="none" xmlns="http://www.w3.org/2000/svg">
<path fill-rule="evenodd" clip-rule="evenodd" d="M12.4899 0.139987C12.0444 0.413713 12.0374 0.45399 12.0099 2.92143C11.9799 5.61684 11.9984 5.79398 12.3472 6.14279L12.6061 6.40166L29.8391 6.40314C40.1208 6.40408 47.6316 6.43568 48.459 6.48158C52.6562 6.71433 55.831 7.66009 58.5686 9.49327C62.1429 11.8867 64.2351 15.545 64.8737 20.5181C65.0223 21.6755 65.0015 24.6715 64.8364 25.8753C64.4536 28.667 63.6628 30.8909 62.3426 32.8889C61.6476 33.9408 60.0096 35.6101 58.9391 36.3576C57.1045 37.6387 54.7294 38.6071 52.248 39.086C50.0258 39.5148 50.1073 39.5113 41.1103 39.5576L32.7239 39.6007L32.4683 39.8563L32.2127 40.1119L32.1891 44.627C32.1735 47.5834 32.1934 49.2381 32.2465 49.4207C32.298 49.5979 32.6913 50.1129 33.326 50.834C35.3747 53.1624 41.5122 60.1027 42.6534 61.3814C42.9796 61.747 44.1601 63.0819 45.2766 64.3477C46.3932 65.6136 47.7466 67.1469 48.2843 67.7552C48.822 68.3634 49.9119 69.5977 50.7063 70.498C51.5007 71.3983 52.8216 72.8916 53.6416 73.8164C54.4615 74.7412 55.6585 76.0961 56.3014 76.8273C56.9443 77.5586 57.5095 78.1978 57.5573 78.2477C57.6051 78.2977 58.9156 79.7776 60.4693 81.5361C62.4016 83.7233 63.3826 84.7758 63.5736 84.8668C63.8249 84.9867 64.2389 85 67.7109 85C71.4956 85 71.5729 84.997 71.775 84.8379C71.9336 84.7131 71.9811 84.6068 71.9811 84.3761C71.9811 84.0878 71.4684 83.5042 58.6728 69.229C51.3532 61.0631 44.7642 53.7132 44.0304 52.8959C38.3435 46.5621 38.743 47.0291 38.743 46.7156C38.743 46.5237 38.8029 46.3768 38.935 46.2448L39.1269 46.0528H44.5206C47.5387 46.0528 50.4422 46.016 51.113 45.9694C56.8306 45.5716 61.8712 43.262 65.7316 39.2712C69.5284 35.346 71.6293 30.3694 71.9796 24.4708C72.2343 20.1816 71.3574 15.9158 69.4732 12.2771C66.2078 5.97151 60.182 1.75012 52.5466 0.419344C50.2338 0.0162633 51.3821 0.0383177 31.3524 0.0116491C12.988 -0.0127516 12.7357 -0.0110311 12.4899 0.139987ZM12.4566 20.127C12.0047 20.3726 12.0352 18.0257 12.0352 52.544C12.0352 82.3386 12.0436 84.3505 12.1684 84.5784C12.3963 84.9945 12.5045 85.0082 15.3809 84.9835L18.0147 84.9609L18.2173 84.7581C18.3288 84.6467 18.4519 84.4179 18.4909 84.2498C18.5326 84.0702 18.5625 72.1691 18.5636 55.3755L18.5655 26.8066L18.7575 26.6147L18.9494 26.4227H32.6027C44.0198 26.4227 46.2981 26.405 46.5137 26.315C47.0071 26.1089 47.033 25.9548 47.033 23.2215C47.033 20.6099 47.0055 20.3983 46.6328 20.1373C46.4658 20.0203 45.0519 20.01 29.5557 20.0129C15.1159 20.0155 12.6311 20.0321 12.4566 20.127Z" fill="#D8D8D8"/>
</svg>
