<svg width="85" height="85" viewBox="0 0 85 85" fill="none" xmlns="http://www.w3.org/2000/svg">
<g clip-path="url(#clip0_205_186)">
<path fill-rule="evenodd" clip-rule="evenodd" d="M39.862 0.0997955C36.82 0.348081 34.8759 0.617002 33.2621 1.0129C30.4493 1.70282 29.7632 1.90314 28.0101 2.54667C27.4989 2.73435 26.976 2.92212 26.8482 2.96395C26.7204 3.00578 26.4903 3.1071 26.3369 3.189C26.1835 3.27098 26.0268 3.33819 25.9886 3.33856C25.809 3.34005 23.0765 4.66718 21.968 5.29129C21.6101 5.49272 21.2546 5.68746 21.1779 5.724C20.7926 5.90749 18.6695 7.26409 18.0493 7.7232C17.8879 7.84274 17.664 8.00318 17.5518 8.07987C17.2546 8.28316 16.1462 9.11819 15.8862 9.33477C15.5685 9.59951 14.3033 10.6766 13.9805 10.9573C12.9872 11.8206 10.6619 14.2525 9.71 15.4234C9.00195 16.2943 9.09259 16.179 8.46588 17.0036C8.17437 17.3871 7.89308 17.747 7.84084 17.8035C7.78851 17.86 7.59934 18.1457 7.4204 18.4382C7.24146 18.7308 6.96538 19.1448 6.8068 19.358C6.11158 20.2935 4.20432 23.801 3.51263 25.4161C3.40313 25.6718 3.27745 25.9646 3.23321 26.0668C3.04683 26.4976 2.84196 27.0119 2.77038 27.2288C2.72808 27.3566 2.60455 27.6912 2.4957 27.9724C2.19675 28.7451 1.64571 30.3935 1.56353 30.7611C1.52347 30.94 1.35987 31.6093 1.1998 32.2484C0.732788 34.1132 0.710757 34.2103 0.577737 34.9906C0.420828 35.9108 0.190111 37.6131 0.0800516 38.6623C-0.0226646 39.6412 -0.0280561 45.4116 0.0727081 46.4242C0.337539 49.084 0.893043 52.0174 1.56911 54.3254C1.67397 54.6833 1.79509 55.1016 1.8384 55.255C1.88163 55.4083 2.09171 56.0149 2.30523 56.6028C2.51866 57.1908 2.73366 57.8062 2.78293 57.9706C2.8322 58.1348 2.91269 58.2942 2.96196 58.3246C3.01123 58.355 3.05148 58.4428 3.05148 58.5197C3.05148 58.5965 3.16014 58.8972 3.29298 59.1881C3.73396 60.1537 3.79512 60.3019 3.79512 60.4048C3.79512 60.461 3.83695 60.507 3.88808 60.507C3.93921 60.507 3.98122 60.5593 3.9815 60.6232C3.98206 60.7351 4.73491 62.2469 5.21995 63.1097C5.34925 63.3398 5.56528 63.731 5.69998 63.979C5.92065 64.3856 7.4139 66.709 7.61487 66.9586C7.95304 67.3784 8.34996 67.961 8.34996 68.0372C8.34996 68.0879 8.38175 68.1293 8.42061 68.1293C8.45946 68.1293 8.72095 68.4322 9.00158 68.8024C10.2301 70.4228 12.8103 73.1439 14.489 74.5898C15.6801 75.6155 16.4269 76.2165 16.5105 76.2165C16.5638 76.2165 16.6215 76.2583 16.6386 76.3094C16.6715 76.4081 17.3829 76.9259 18.9004 77.956C19.9376 78.6598 19.8913 78.6305 20.7721 79.1446C21.1225 79.3491 21.4931 79.5661 21.5956 79.6267C21.6981 79.6873 22.0331 79.8674 22.3398 80.027C22.6466 80.1866 22.9603 80.356 23.037 80.4035C23.281 80.5543 24.9215 81.3339 25.5003 81.574C25.8071 81.7014 26.1899 81.8656 26.351 81.939C26.512 82.0126 26.7003 82.074 26.7693 82.0757C26.8382 82.0773 26.9759 82.14 27.0751 82.2151C27.1744 82.2901 27.3437 82.3516 27.4515 82.3516C27.5594 82.3516 27.6873 82.3902 27.7359 82.4373C27.7844 82.4844 28.368 82.6972 29.0326 82.9102C29.6973 83.1231 30.4084 83.3534 30.6129 83.4219C30.9314 83.5285 32.9141 84.0078 34.2846 84.3094C36.5021 84.7976 38.8752 84.9991 42.4183 85C46.5901 85.0011 48.4589 84.8078 51.9462 84.0149C53.3701 83.6912 56.425 82.7877 57.1053 82.4892C57.2587 82.422 57.7816 82.2139 58.2672 82.027C59.5301 81.5409 61.7404 80.4993 62.8221 79.8805C63.1033 79.7197 63.5216 79.4832 63.7516 79.3548C64.4707 78.9537 65.3634 78.3924 66.3179 77.7413C67.0957 77.2106 67.4471 76.9558 68.26 76.3329C70.7318 74.4386 73.4433 71.8384 75.1666 69.7096C75.4356 69.3773 75.7381 69.0077 75.8388 68.8883C75.9395 68.769 76.0218 68.6365 76.0218 68.5939C76.0218 68.5515 76.0636 68.5027 76.1147 68.4856C76.2211 68.4501 76.7907 67.6589 77.9103 65.9914C79.0739 64.2582 79.5209 63.4832 80.564 61.39C81.13 60.2544 81.328 59.8314 81.6955 58.9732C81.7927 58.7462 82.1278 57.8905 82.3053 57.4162C82.3771 57.2245 82.4974 56.9108 82.5726 56.719C82.7981 56.1447 83.6061 53.3668 83.8231 52.4198C84.4171 49.8285 84.6221 48.5548 84.8557 46.0059C84.9603 44.8638 84.9603 40.2692 84.8557 39.1271C84.5289 35.5609 83.8754 32.2954 82.91 29.4065C82.6351 28.5835 82.5353 28.3084 82.1544 27.3217C82.0459 27.0405 81.9235 26.703 81.8824 26.5718C81.8413 26.4404 81.7618 26.2522 81.7058 26.1535C81.6497 26.0546 81.5018 25.7229 81.3771 25.4161C81.1145 24.7702 79.9788 22.5132 79.5061 21.6979C79.3282 21.3911 79.1542 21.0774 79.1194 21.0007C79.0845 20.924 78.8544 20.5549 78.6078 20.1806C78.3614 19.8062 78.1598 19.4816 78.1598 19.4592C78.1598 19.4368 78.0134 19.2098 77.8345 18.9548C77.6555 18.6996 77.356 18.2713 77.169 18.0029C75.4217 15.4958 73.1296 12.9542 70.4413 10.5426C70.0553 10.1963 69.1228 9.42001 68.9107 9.26831C68.8596 9.23168 68.6713 9.08398 68.4924 8.93999C68.3134 8.796 67.9997 8.55617 67.7952 8.40717C67.5907 8.25816 67.4025 8.11296 67.3769 8.08452C67.3514 8.05607 67.1422 7.90753 66.9121 7.75424C66.6821 7.60105 66.452 7.44228 66.4009 7.40157C65.9966 7.07929 63.3635 5.48064 62.6826 5.14414C62.5293 5.06829 62.0537 4.81944 61.6258 4.59105C61.198 4.36256 60.7902 4.17572 60.7195 4.17572C60.6489 4.17572 60.5911 4.13389 60.5911 4.08277C60.5911 4.03164 60.5467 3.98981 60.4924 3.98981C60.4381 3.98981 60.1558 3.88189 59.865 3.74989C59.1509 3.42594 59.0442 3.38049 58.4532 3.148C58.172 3.03748 57.8164 2.892 57.663 2.82489C57.2624 2.64939 55.7714 2.1161 55.437 2.02863C55.2809 1.98782 54.8604 1.86763 54.5025 1.76157C49.7968 0.367136 44.2707 -0.26013 39.862 0.0997955ZM45.5323 5.01177C47.5565 5.19694 49.4414 5.4957 51.1096 5.89578C52.8874 6.32207 55.1012 7.0158 56.2222 7.49778C56.35 7.55281 56.6737 7.68629 56.9415 7.7944C57.5053 8.02214 59.093 8.75175 59.5686 9.00162C61.875 10.2131 63.5319 11.2773 65.5643 12.8523C66.2289 13.3674 66.8145 13.8347 66.8657 13.8907C66.9168 13.9468 67.3114 14.3041 67.7425 14.6848C68.3702 15.239 69.3898 16.2463 70.218 17.1304C70.3284 17.2482 71.1022 18.1311 71.4105 18.4909C71.7528 18.8905 72.8181 20.2813 73.1728 20.7916C73.3594 21.0599 73.651 21.4782 73.8208 21.7211C74.6867 22.959 76.2468 25.8222 77.0245 27.6006C77.3709 28.3927 77.8809 29.7376 77.8809 29.8588C77.8809 29.9256 77.9176 30.02 77.9623 30.0686C78.1686 30.2927 79.1766 33.9503 79.4597 35.5018C79.5898 36.2156 79.804 37.6837 79.9207 38.6623C80.073 39.9395 80.1297 43.1406 80.0303 44.8439C79.9177 46.7726 79.5209 49.636 79.188 50.9225C79.1403 51.107 79.0102 51.6134 78.8988 52.048C78.7874 52.4825 78.6422 53.0054 78.5761 53.2099C78.5101 53.4144 78.3702 53.8536 78.2652 54.186C78.1602 54.5183 77.9658 55.083 77.8332 55.4409C77.7005 55.7987 77.5508 56.226 77.5006 56.3903C77.4504 56.5546 77.369 56.714 77.3198 56.7444C77.2705 56.7748 77.2302 56.8633 77.2302 56.9409C77.2302 57.0186 77.0795 57.4031 76.8951 57.7953C76.2644 59.1374 75.6035 60.4605 75.5396 60.5088C75.5044 60.5355 75.431 60.661 75.3762 60.7877C75.1824 61.237 74.0262 63.1577 73.7266 63.528C73.6853 63.5792 73.5259 63.8092 73.3726 64.0393C73.0878 64.4664 72.9829 64.6099 72.8096 64.8094C72.7557 64.8715 72.6093 65.0732 72.4843 65.2576C72.2503 65.6028 71.9187 66.005 70.7349 67.3797C70.0085 68.2229 67.8216 70.3998 66.9898 71.1075C65.6725 72.228 62.7622 74.3574 62.548 74.3574C62.5027 74.3574 62.4518 74.39 62.4347 74.4299C62.3474 74.6343 59.0544 76.4089 57.663 77.0014C57.4585 77.0885 57.1657 77.2156 57.0123 77.2838C56.7254 77.4114 56.399 77.5375 55.4321 77.8945C55.1253 78.0079 54.7907 78.1353 54.6884 78.1778C54.0896 78.4268 51.4623 79.1566 50.273 79.4042C47.8541 79.908 45.9258 80.1254 43.3478 80.1849C39.1883 80.281 35.6185 79.8071 31.6354 78.6301C31.2775 78.5243 30.8476 78.4023 30.68 78.3589C30.5124 78.3154 30.3242 78.2388 30.2617 78.1885C30.1992 78.1382 30.0019 78.0658 29.8231 78.0275C29.6444 77.9892 29.3516 77.8946 29.1724 77.8174C28.488 77.5222 28.2735 77.4329 27.7777 77.2372C27.3241 77.0581 24.4019 75.6273 23.9198 75.3483C23.3679 75.0288 22.4193 74.4372 21.5962 73.8993C20.6938 73.3095 20.5527 73.211 20.3148 73.0043C20.2527 72.9504 20.0516 72.804 19.8679 72.679C19.5357 72.4529 19.2275 72.2053 17.9766 71.1594C17.2417 70.5449 14.3896 67.6897 13.7352 66.9133C12.9826 66.0204 11.9752 64.6954 11.9752 64.5983C11.9752 64.5464 11.938 64.5041 11.8924 64.5041C11.8088 64.5041 10.8624 63.0838 10.1065 61.8243C9.46134 60.749 8.82431 59.5438 8.30506 58.4155C7.66172 57.0176 7.4204 56.4599 7.4204 56.3704C7.4204 56.3347 7.35952 56.1737 7.28515 56.0126C7.13744 55.6928 6.8794 54.992 6.80076 54.6972C6.77352 54.595 6.69265 54.3795 6.62108 54.2184C6.54941 54.0573 6.49084 53.8637 6.49084 53.7882C6.49084 53.7127 6.4334 53.5099 6.36331 53.3375C6.22973 53.0092 5.67079 50.734 5.42994 49.5382C4.61816 45.5065 4.62001 39.3987 5.43422 35.5018C5.86785 33.4268 6.6881 30.4572 6.95525 29.9955C7.00656 29.9067 7.04858 29.792 7.04858 29.7407C7.04858 29.6064 7.81732 27.6561 7.89215 27.6006C7.92664 27.575 7.98427 27.4182 8.02034 27.252C8.05641 27.0858 8.12436 26.9499 8.17139 26.9499C8.21852 26.9499 8.25701 26.9035 8.25701 26.8468C8.25701 26.7339 9.28435 24.6549 9.56127 24.2077C9.65618 24.0543 9.79217 23.8243 9.86338 23.6965C10.211 23.0723 10.4147 22.7409 10.9822 21.8759C11.4827 21.113 12.4052 19.8355 12.7888 19.374C12.8313 19.3229 13.0414 19.0585 13.2558 18.7865C14.4261 17.3016 16.5904 15.0975 18.1568 13.7954C18.4636 13.5405 18.7355 13.3081 18.761 13.2791C18.8286 13.2023 19.7214 12.5193 19.968 12.3558C20.0835 12.2791 20.2253 12.1732 20.283 12.1204C20.3958 12.0168 21.7557 11.0804 22.0612 10.8958C22.1633 10.8341 22.5751 10.5831 22.9764 10.338C24.1699 9.60908 25.9895 8.64699 27.127 8.14345C28.0432 7.73788 29.2672 7.24327 29.3545 7.24327C29.4089 7.24327 29.5261 7.20125 29.6149 7.14994C30.0716 6.88566 33.4492 5.90954 34.4385 5.75588C34.702 5.71498 35.0576 5.6369 35.2286 5.58242C35.693 5.43444 37.9606 5.1301 39.4902 5.01037C40.2315 4.95237 40.9426 4.89065 41.0704 4.87317C41.4949 4.81507 44.353 4.90385 45.5323 5.01177ZM41.9693 32.1204C41.4325 32.2854 40.8499 32.841 40.5137 33.5086C40.3864 33.7613 40.1718 34.1354 40.0368 34.3399C39.8149 34.6762 39.4806 35.2669 39.1273 35.9476C39.0554 36.0859 38.9709 36.2199 38.9394 36.2455C38.9079 36.2711 38.8286 36.3965 38.7631 36.5244C38.5781 36.8854 38.3904 37.2154 37.5034 38.7401C36.7095 40.1046 36.672 40.1518 36.5041 39.9999C36.4082 39.913 36.3297 39.8086 36.3297 39.7677C36.3297 39.7269 35.9741 39.0867 35.5395 38.345C35.105 37.6034 34.7494 36.9668 34.7494 36.9305C34.7494 36.8941 34.69 36.7983 34.6173 36.7176C34.5446 36.6368 34.3755 36.3617 34.2413 36.1061C34.1071 35.8504 33.9163 35.5158 33.8171 35.3624C33.7179 35.209 33.5944 34.9999 33.5426 34.8976C33.4908 34.7954 33.4089 34.649 33.3605 34.5723C33.312 34.4956 33.0968 34.1274 32.8819 33.7541C32.4056 32.9259 32.0951 32.6216 31.5191 32.4185C31.1177 32.2769 30.2082 32.2621 21.5032 32.2552C12.6478 32.248 11.895 32.2595 11.4799 32.4084C10.2713 32.8416 9.72552 34.2536 10.3264 35.3932C10.75 36.1966 10.906 36.4775 10.9546 36.5243C10.9813 36.5499 11.0551 36.6754 11.1188 36.8032C11.3034 37.1737 11.8141 38.0537 11.874 38.1047C11.9041 38.1303 12.0074 38.2976 12.1035 38.4765C12.5404 39.29 12.6989 39.5704 12.9178 39.9172C13.0468 40.1217 13.2778 40.5191 13.431 40.8003C13.5843 41.0815 13.8213 41.4886 13.9579 41.7048C14.0944 41.9211 14.2062 42.1136 14.2062 42.1326C14.2062 42.1516 14.6086 42.8531 15.1003 43.6914C15.5922 44.5298 16.1135 45.4334 16.2589 45.6996C16.6745 46.4603 16.7591 46.6068 16.8108 46.6565C16.8375 46.6821 16.911 46.8076 16.9742 46.9354C17.0375 47.0632 17.177 47.3142 17.2841 47.4931C17.9666 48.6327 18.4821 49.5373 18.4821 49.5954C18.4821 49.6325 18.5395 49.729 18.6095 49.8097C18.6796 49.8905 18.8469 50.1552 18.9813 50.398C19.1158 50.6409 19.3358 51.0383 19.4703 51.2811C19.6047 51.524 19.772 51.7886 19.8421 51.8694C19.9121 51.9501 19.9694 52.0446 19.9694 52.0794C19.9694 52.1143 20.4157 52.9057 20.9612 53.8382C21.5067 54.7708 22.0438 55.7011 22.1548 55.9056C22.4157 56.386 24.3114 59.6736 24.4329 59.8563C24.4839 59.933 24.5768 60.1003 24.6393 60.2281C24.7017 60.3559 24.7746 60.4815 24.8013 60.5072C24.8279 60.5329 24.9504 60.742 25.0736 60.972C25.5187 61.8026 25.7345 62.0795 26.1714 62.381C26.5771 62.661 26.6765 62.6878 27.313 62.6883C28.3418 62.689 28.6516 62.454 29.5174 61.0164C29.8862 60.4039 30.1895 59.8505 30.1913 59.7866C30.1931 59.7227 30.2336 59.6704 30.2813 59.6704C30.329 59.6704 30.3957 59.5828 30.4298 59.4757C30.4637 59.3687 30.6079 59.1072 30.7502 58.8947C30.8924 58.6822 31.1217 58.2993 31.2599 58.0436C31.6029 57.4087 32.0547 56.6169 32.3246 56.1778C32.448 55.977 32.6535 55.6245 32.781 55.3944C32.9086 55.1643 33.1102 54.8088 33.2289 54.6043C33.3477 54.3998 33.4881 54.1488 33.5408 54.0465C33.5935 53.9443 33.7193 53.7351 33.8202 53.5818C33.9212 53.4284 34.0557 53.1983 34.1191 53.0705C34.1825 52.9427 34.257 52.8172 34.2846 52.7916C34.3122 52.7661 34.387 52.6406 34.4508 52.5128C34.5144 52.3849 34.688 52.0712 34.8363 51.8156C36.2625 49.3592 36.5732 48.8517 36.6454 48.8613C36.6914 48.8673 36.8587 49.1162 37.0173 49.4144C37.1759 49.7126 37.328 49.9774 37.3553 50.003C37.466 50.1068 38.1888 51.3905 38.1888 51.4833C38.1888 51.5382 38.2214 51.5832 38.2614 51.5832C38.3013 51.5832 38.3834 51.6982 38.4439 51.8388C38.5044 51.9795 38.5957 52.1572 38.6469 52.2339C38.7389 52.3717 40.1487 54.7913 40.5845 55.5594C40.8514 56.0297 41.2579 56.3601 41.8089 56.5545C42.308 56.7306 42.4979 56.7311 43.0817 56.5577C43.5451 56.4202 44.1559 55.9222 44.3377 55.5338C44.3856 55.4316 44.4759 55.2643 44.5382 55.162C44.6006 55.0598 44.8097 54.7042 45.0028 54.3719C45.1959 54.0396 45.3917 53.7049 45.4379 53.6282C45.4841 53.5515 45.8736 52.8823 46.3037 52.1409C47.0387 50.8739 47.2121 50.5688 47.8222 49.4685C48.1417 48.8923 48.2424 48.7708 48.3268 48.8603C48.3892 48.9262 48.5425 49.1863 48.9455 49.91C49.0167 50.0378 49.1559 50.2679 49.2547 50.4213C49.3535 50.5746 49.4626 50.7629 49.497 50.8396C49.5565 50.9726 51.3011 53.9879 51.4868 54.2789C51.5358 54.3556 51.6269 54.5229 51.6894 54.6507C51.7519 54.7786 51.8257 54.904 51.8533 54.9296C51.8809 54.9552 51.9547 55.0807 52.0172 55.2085C52.0796 55.3363 52.1722 55.5036 52.2228 55.5803C52.2734 55.657 52.6757 56.3472 53.1168 57.1141C53.9943 58.6395 54.3469 59.2465 54.5209 59.5309C54.5834 59.6332 54.6871 59.8214 54.7512 59.9492C54.8153 60.077 54.9714 60.3489 55.0981 60.5534C55.2247 60.7579 55.4285 61.1135 55.5507 61.3436C55.8174 61.8453 56.1549 62.2158 56.592 62.4862C56.8442 62.6423 57.0586 62.6857 57.568 62.6835C58.2841 62.6805 58.6596 62.5356 59.0562 62.1096C59.2732 61.8764 60.3123 60.2144 60.3123 60.1005C60.3123 60.0735 60.4316 59.8716 60.5775 59.6518C60.7233 59.4319 60.9904 58.9802 61.171 58.6478C61.3516 58.3155 61.9144 57.3325 62.4216 56.4634C62.9288 55.5942 63.3733 54.8204 63.4094 54.7437C63.4454 54.667 63.5581 54.4788 63.6599 54.3254C63.7617 54.172 63.9083 53.921 63.9856 53.7677C64.063 53.6143 64.1664 53.4261 64.2156 53.3494C64.4564 52.9734 66.6884 49.1046 67.2188 48.1438C67.374 47.8626 67.5359 47.6186 67.5784 47.6016C67.6209 47.5845 67.6558 47.5306 67.6558 47.4817C67.6558 47.4327 68.0113 46.7859 68.4459 46.0443C68.8805 45.3026 69.236 44.6729 69.236 44.6448C69.236 44.6167 69.3148 44.4827 69.4111 44.347C69.5792 44.11 69.7331 43.848 70.2383 42.9383C70.3661 42.7082 70.6739 42.1737 70.9223 41.7502C71.1707 41.3269 71.374 40.9483 71.374 40.909C71.374 40.8697 71.4264 40.7855 71.4902 40.7221C71.6272 40.586 72.1593 39.656 72.3097 39.2898C72.3674 39.1492 72.4525 39.0342 72.4986 39.0342C72.5447 39.0342 72.5824 38.9935 72.5824 38.9439C72.5824 38.8942 73.0252 38.0961 73.5663 37.1704C74.7364 35.1685 74.8134 34.9967 74.8134 34.3864C74.8134 33.5587 74.4124 32.9061 73.6514 32.4955L73.2796 32.2949L63.5677 32.27C54.6289 32.247 53.8209 32.2576 53.417 32.4028C52.8109 32.6208 52.3458 33.0636 52.0172 33.7357C51.9547 33.8635 51.8809 33.989 51.8533 34.0145C51.8257 34.0401 51.7519 34.1656 51.6894 34.2934C51.6269 34.4212 51.5343 34.5886 51.4835 34.6652C51.4328 34.7419 51.1181 35.2857 50.7843 35.8737C50.4505 36.4616 50.1358 37.0054 50.0851 37.0821C50.0343 37.1588 49.9417 37.3261 49.8792 37.4539C49.8167 37.5817 49.7402 37.7072 49.7093 37.7328C49.6783 37.7583 49.5267 38.0093 49.3725 38.2905C48.9364 39.0854 48.6908 39.5186 48.4854 39.8551C48.2635 40.2187 48.1935 40.1774 47.8172 39.4622C47.6854 39.212 47.5414 38.961 47.497 38.9045C47.4259 38.814 47.3083 38.6103 46.7669 37.6398C46.6956 37.512 46.5573 37.2819 46.4596 37.1286C46.3618 36.9752 46.2188 36.7242 46.1416 36.5708C45.9391 36.1679 45.512 35.4212 45.2354 34.9864C45.1039 34.7796 44.8838 34.4031 44.7464 34.1498C44.6092 33.8965 44.4165 33.5637 44.3184 33.4103C44.2203 33.257 44.1119 33.0687 44.0776 32.992C43.9512 32.7094 43.3617 32.2467 43.0057 32.1509C42.804 32.0966 42.5894 32.0364 42.5286 32.0173C42.4679 31.9981 42.2163 32.0444 41.9693 32.1204ZM29.7717 36.8265C30.0046 37.2772 30.2348 37.6804 30.2894 37.7328C30.3161 37.7583 30.389 37.8838 30.4514 38.0116C30.5139 38.1395 30.6068 38.3068 30.6578 38.3835C30.7613 38.5392 32.8715 42.191 33.236 42.8454C33.3072 42.9732 33.444 43.2032 33.5402 43.3566C34.0584 44.1843 34.2142 44.6611 34.0108 44.7974C33.9727 44.823 33.8828 44.957 33.8109 45.0953C33.4421 45.8058 33.1197 46.3715 32.8791 46.7309C32.7319 46.9507 32.6114 47.1541 32.6114 47.1828C32.6114 47.2115 32.4077 47.5754 32.1586 47.9915C31.9095 48.4076 31.5958 48.9468 31.4615 49.1896C31.3271 49.4324 31.1071 49.8299 30.9726 50.0727C30.8382 50.3155 30.6709 50.5802 30.6008 50.661C30.5308 50.7417 30.4735 50.8368 30.4735 50.8723C30.4735 50.9278 28.7751 53.8874 28.5184 54.2789C28.4682 54.3556 28.3766 54.5229 28.3148 54.6507C28.2531 54.7786 28.098 55.0505 27.9701 55.255C27.8421 55.4595 27.6683 55.7523 27.5838 55.9056C27.4994 56.059 27.3848 56.1845 27.3292 56.1845C27.2392 56.1845 26.3504 54.7616 25.6461 53.49C25.5041 53.2337 25.2718 52.8149 25.13 52.5592C24.9881 52.3036 24.8147 52.0285 24.7446 51.9477C24.6746 51.867 24.6172 51.7748 24.6172 51.7429C24.6172 51.7109 24.2673 51.0867 23.8397 50.3558C23.4122 49.6249 22.9725 48.8596 22.8627 48.6551C22.753 48.4506 22.6224 48.2205 22.5726 48.1438C22.3477 47.7979 21.2708 45.8962 21.2708 45.8451C21.2708 45.8138 21.2123 45.7221 21.1408 45.6414C21.0692 45.5606 20.8914 45.28 20.7457 45.0177C20.5158 44.604 20.0089 43.7141 19.3479 42.5643C19.2445 42.3843 18.8559 41.715 18.4846 41.0771C18.1132 40.4392 17.661 39.6453 17.4796 39.313C17.2983 38.9807 17.1246 38.6879 17.0937 38.6623C17.0628 38.6368 16.9864 38.5113 16.9239 38.3835C16.8615 38.2557 16.7688 38.0883 16.7181 38.0116C16.4632 37.6259 15.9723 36.7131 15.9723 36.6249C15.9723 36.5537 17.9646 36.5244 22.794 36.5244H29.6157L29.7717 36.8265ZM68.9551 36.6406C68.954 36.7045 68.8713 36.8613 68.7713 36.9891C68.6712 37.1169 68.5885 37.2573 68.5874 37.301C68.5863 37.3447 68.4599 37.5664 68.3065 37.7937C68.1531 38.0209 68.0276 38.2262 68.0276 38.2497C68.0276 38.2733 67.6721 38.8994 67.2375 39.6411C66.8029 40.3827 66.4474 41.0141 66.4474 41.0441C66.4474 41.0742 66.3219 41.2846 66.1685 41.5119C66.0151 41.7392 65.8896 41.9549 65.8896 41.9914C65.8896 42.0279 65.7432 42.2751 65.5643 42.5408C65.3853 42.8065 65.2389 43.0443 65.2389 43.0691C65.2389 43.1156 64.1053 45.107 63.9376 45.3552C63.8857 45.4318 63.7933 45.5992 63.7322 45.727C63.6712 45.8548 63.551 46.0639 63.465 46.1918C63.3164 46.4126 63.196 46.6197 62.6543 47.5861C62.5253 47.8162 62.1607 48.4436 61.844 48.9804C61.2993 49.9039 61.1664 50.137 60.5456 51.2579C60.404 51.5135 60.2308 51.7886 60.1608 51.8694C60.0908 51.9501 60.0334 52.0445 60.0334 52.0793C60.0334 52.114 59.5866 52.9055 59.0405 53.8381C58.4944 54.7708 57.9638 55.6907 57.8613 55.8824C57.662 56.2553 57.4874 56.3271 57.391 56.0759C57.3583 55.9906 56.948 55.2691 56.4793 54.4725C56.0106 53.6758 55.5489 52.8776 55.4532 52.6987C55.3575 52.5197 55.2004 52.2478 55.1042 52.0945C55.008 51.9411 54.8195 51.6064 54.6853 51.3508C54.5512 51.0952 54.382 50.82 54.3093 50.7393C54.2366 50.6586 54.1772 50.5668 54.1772 50.5355C54.1772 50.5041 53.9134 50.0264 53.5908 49.4738C53.2684 48.9212 52.9765 48.4064 52.9421 48.3297C52.9078 48.2531 52.7748 48.023 52.6464 47.8185C52.518 47.614 52.3698 47.363 52.3169 47.2608C52.264 47.1585 52.1276 46.919 52.0137 46.7285C51.9 46.5379 51.6864 46.1615 51.5392 45.8919C51.392 45.6222 51.2456 45.3807 51.2138 45.3552C51.1821 45.3296 51.0561 45.1167 50.9338 44.882L50.7115 44.4553L51.4996 43.1159C51.933 42.3792 52.3157 41.7136 52.3501 41.6369C52.3845 41.5602 52.4899 41.372 52.5842 41.2186C52.6786 41.0652 53.1542 40.2496 53.6413 39.406C54.1284 38.5624 54.7045 37.569 54.9218 37.1983L55.3167 36.5244H62.1369C67.5323 36.5244 68.9567 36.5486 68.9551 36.6406ZM43.0553 39.6849C43.2434 40.0172 43.4387 40.3518 43.4894 40.4285C43.5401 40.5052 43.6327 40.6725 43.6952 40.8003C43.7577 40.9281 43.8306 41.0536 43.8572 41.0792C43.9073 41.1274 43.9971 41.2816 44.3941 42.0014C44.5233 42.2356 44.8322 42.7734 45.0806 43.1968C45.329 43.6201 45.5323 43.9934 45.5323 44.0261C45.5323 44.0588 45.6002 44.1606 45.683 44.2521C45.8293 44.4138 45.8198 44.5061 45.6272 44.7974C45.5765 44.8741 45.2619 45.4179 44.9281 46.0059C44.5943 46.5938 44.2796 47.1376 44.2289 47.2143C44.1781 47.291 44.0866 47.4583 44.0256 47.5861C43.9646 47.7139 43.8443 47.9231 43.7583 48.0509C43.6723 48.1787 43.5098 48.4506 43.397 48.6551C42.5563 50.1802 42.4404 50.3178 42.2656 49.9974C42.0932 49.6817 39.6651 45.4818 39.5816 45.3552C39.5311 45.2785 39.4506 45.1257 39.4027 45.0156C39.3549 44.9055 39.2714 44.788 39.2171 44.7545C39.1628 44.7209 39.1183 44.5939 39.1183 44.4721C39.1183 44.3503 39.1628 44.2232 39.2171 44.1897C39.2714 44.1561 39.3555 44.0386 39.4041 43.9286C39.4527 43.8185 39.5815 43.582 39.6902 43.4031C39.799 43.2241 39.992 42.8895 40.1194 42.6594C40.2467 42.4294 40.4082 42.1751 40.4783 42.0944C40.5483 42.0137 40.6056 41.9149 40.6056 41.8749C40.6056 41.8349 40.8094 41.4617 41.0584 41.0456C41.5587 40.2098 41.9775 39.4706 42.1318 39.1511C42.1871 39.0365 42.2637 38.9423 42.3021 38.942C42.3405 38.9416 42.3718 38.8728 42.3718 38.7892C42.3718 38.5851 42.6085 38.8952 43.0553 39.6849Z" fill="#D8D8D8"/>
</g>
<defs>
<clipPath id="clip0_205_186">
<rect width="85" height="85" fill="white"/>
</clipPath>
</defs>
</svg>
