<svg width="85" height="85" viewBox="0 0 85 85" fill="none" xmlns="http://www.w3.org/2000/svg">
<path d="M42.7626 41.9611L36.9888 37.0524C37.0248 26.3382 37.0619 21.0155 37.0947 10.3013L47.396 0H66.009L48.2632 15.3169V37.0524C46.43 38.6893 44.5965 40.3255 42.7626 41.9611Z" fill="#D8D8D8"/>
<path d="M76.2012 0V21.4655L71.8325 25.8342V57.17L42.6546 85L13.4227 57.17L13.3168 34.0803L24.9183 22.4809V51.6683C30.8286 57.674 36.74 63.6789 42.6525 69.6831L61.3153 51.6683C61.3343 41.5651 61.3523 31.4614 61.3693 21.3575L66.2187 16.5091V11.3262H57.9535L71.0829 0H76.2012Z" fill="#D8D8D8"/>
<path d="M13.4227 29.6639V25.7802L9 21.4655V0H37.7999L40.4565 2.62905L13.4227 29.6639Z" fill="#D8D8D8"/>
</svg>
