<svg width="85" height="85" viewBox="0 0 85 85" fill="none" xmlns="http://www.w3.org/2000/svg">
<g clip-path="url(#clip0_205_178)">
<path fill-rule="evenodd" clip-rule="evenodd" d="M0.890052 0.111702C0.890052 0.173338 6.04657 5.38014 12.349 11.6824L23.8078 23.1414H42.8333H61.8586V42.1667V61.1922L73.3176 72.651C79.6199 78.9534 84.8267 84.1099 84.8883 84.1099C84.9497 84.1099 85 65.1852 85 42.055V0H42.945C19.8148 0 0.890052 0.050288 0.890052 0.111702ZM11.8488 39.9589L0 51.8444V68.4223V85H16.8002H33.6006L45.2819 73.3185C51.7067 66.8939 56.9634 61.4868 56.9634 61.3028C56.9634 61.0084 54.997 60.9686 40.4974 60.9686H24.0314V44.5026C24.0314 35.4463 23.9562 28.0449 23.8645 28.0551C23.7729 28.0651 18.3656 33.4219 11.8488 39.9589Z" fill="#D8D8D8"/>
</g>
<defs>
<clipPath id="clip0_205_178">
<rect width="85" height="85" fill="white"/>
</clipPath>
</defs>
</svg>
