<svg width="85" height="85" viewBox="0 0 85 85" fill="none" xmlns="http://www.w3.org/2000/svg">
<path fill-rule="evenodd" clip-rule="evenodd" d="M0.207565 8.20757L0 8.41513V42.0142V75.6133L0.210405 75.8237L0.42081 76.034L6.05105 76.0107C10.4634 75.9924 11.7427 75.9672 11.9653 75.8939C12.4976 75.7189 13.2428 75.3175 13.5957 75.0158C13.9024 74.7536 15.4566 72.8349 20.7421 66.1934C21.4259 65.3342 24.4423 61.5475 27.4453 57.7786C30.4482 54.0097 33.5161 50.1592 34.263 49.2218C35.0097 48.2845 36.881 45.9358 38.4213 44.0025C39.9616 42.0692 41.5093 40.125 41.8605 39.682L42.499 38.8766L42.677 39.1077C42.775 39.2349 44.325 41.183 46.1216 43.4369C47.9181 45.6907 50.9858 49.5404 52.9386 51.9918C54.8914 54.4432 57.3839 57.5712 58.4774 58.943C59.571 60.3148 61.2159 62.3795 62.1328 63.5312C70.9408 74.5953 70.9691 74.6304 71.35 74.9657C71.7574 75.3243 72.2655 75.6142 72.8571 75.8255L73.3187 75.9905L78.9489 76.0123L84.5792 76.034L84.7896 75.8237L85 75.6133V42.0142V8.41513L84.7924 8.20757L84.5849 8H80.3222C77.5231 8 75.9304 8.02656 75.6833 8.07741C75.4764 8.12001 75.0354 8.28398 74.7034 8.44183C74.2218 8.67084 73.9922 8.83815 73.5672 9.26982C72.9533 9.89337 72.6303 10.452 72.4293 11.2378C72.2911 11.7782 72.2891 12.1098 72.2891 33.7528C72.2891 46.3164 72.2624 55.7193 72.2267 55.7193C72.1651 55.7193 71.7911 55.2572 68.2315 50.784C67.2369 49.5343 65.468 47.3134 64.3006 45.8488C63.1332 44.3842 60.7398 41.3804 58.982 39.1738C57.2242 36.9671 54.9076 34.0592 53.8338 32.7118C48.2328 25.6831 44.1685 20.5789 43.9075 20.2458C43.3678 19.5569 42.4369 19.349 41.6962 19.7522C41.3874 19.9202 41.1568 20.1632 40.3861 21.1324C39.8717 21.7794 38.0627 24.0502 36.3661 26.1788C34.6697 28.3073 32.5597 30.9559 31.6774 32.0644C30.795 33.1729 29.0505 35.3621 27.8008 36.9291C26.551 38.4962 24.7785 40.7207 23.8621 41.8727C21.3951 44.9733 16.5575 51.0447 14.5692 53.5357C13.6105 54.7367 12.8003 55.7193 12.7685 55.7193C12.7369 55.7193 12.7104 45.8533 12.7097 33.7947C12.7083 9.56118 12.745 11.4044 12.2448 10.3645C11.8856 9.61777 11.1036 8.82991 10.3676 8.47322C9.3772 7.99333 9.45708 8 4.70184 8H0.415129L0.207565 8.20757ZM24.1492 8.25486L23.9307 8.43871L23.9407 16.0838C23.9462 20.2886 23.9702 26.1575 23.9939 29.1257L24.0372 34.5226L25.9327 32.1437C26.9752 30.8353 29.177 28.0712 30.8256 26.0013C32.4741 23.9313 34.4572 21.4426 35.2323 20.471L36.6416 18.7043L36.6404 15.3227C36.639 11.538 36.6194 11.3331 36.1699 10.4144C35.8275 9.71456 34.9692 8.84603 34.2982 8.52044C33.3664 8.06825 33.4009 8.07102 28.6658 8.07102H24.3676L24.1492 8.25486ZM51.5184 8.20508C50.7331 8.43346 50.273 8.70891 49.6695 9.31172C49.0191 9.96147 48.7079 10.4908 48.5012 11.299C48.3748 11.7932 48.3627 12.1208 48.3556 15.2624L48.3477 18.6871L49.5058 20.1429C52.1949 23.5233 57.1902 29.7937 59.8298 33.1023L60.9628 34.5226L61.0059 28.4156C61.0296 25.0568 61.0536 19.1986 61.0592 15.3974L61.0693 8.48615L60.8618 8.27858L60.6542 8.07102L56.2993 8.07606C52.3759 8.0806 51.9023 8.09338 51.5184 8.20508ZM35.3842 55.9034C34.6731 56.7981 33.2351 58.6041 32.1887 59.9167C31.1423 61.2293 28.8721 64.0791 27.1439 66.2495L24.0017 70.1957V72.7961C24.0017 75.5644 24.0176 75.7049 24.3528 75.8843C24.4421 75.9321 25.9504 75.9574 28.7078 75.9574C32.6764 75.9574 32.9588 75.9491 33.4748 75.8172C34.2725 75.6131 34.8212 75.2964 35.4421 74.6816C35.8689 74.259 36.0431 74.0198 36.2715 73.543C36.4305 73.2111 36.5962 72.7477 36.6395 72.5134C36.6956 72.2113 36.7125 69.4956 36.6978 63.1821L36.6771 54.2768L35.3842 55.9034ZM48.2908 63.2465C48.2894 73.1948 48.2649 72.6525 48.7578 73.6321C48.9408 73.9959 49.175 74.3033 49.5574 74.6816C50.1788 75.2963 50.728 75.6132 51.5252 75.8172C52.0412 75.9491 52.3236 75.9574 56.2922 75.9574C59.1782 75.9574 60.5559 75.9332 60.6539 75.8807C60.9735 75.7096 60.9983 75.4848 60.9983 72.7584V70.1938L59.1213 67.8386C58.0889 66.5431 56.5054 64.5566 55.6023 63.424C54.6992 62.2914 52.7485 59.8432 51.2674 57.9837C49.7864 56.1241 48.511 54.5264 48.4333 54.4332C48.2922 54.2637 48.2921 54.2713 48.2908 63.2465Z" fill="#D8D8D8"/>
</svg>
