<svg width="85" height="85" viewBox="0 0 85 85" fill="none" xmlns="http://www.w3.org/2000/svg">
<path d="M56.1408 65.6203C56.0747 65.6203 56.0224 65.5681 56.0224 65.5019C56.0224 65.3957 56.1495 65.3434 56.2244 65.4183C56.2993 65.4932 56.247 65.6203 56.1408 65.6203Z" fill="#D8D8D8"/>
<path d="M41.8453 64.5825L25.3976 48.1348C25.072 47.8092 24.8892 47.3687 24.8892 46.909V33.1898C24.8892 32.9774 25.0616 32.805 25.274 32.805H34.3458C34.412 32.805 34.4642 32.8573 34.4642 32.9234V43.3935C34.4642 43.5658 34.5321 43.7295 34.654 43.8514C41.8627 51.0409 49.0732 58.2305 56.2819 65.42C56.3567 65.4949 56.3045 65.622 56.1983 65.622H44.3492C43.4089 65.622 42.507 65.2494 41.8436 64.5843L41.8453 64.5825Z" fill="#D8D8D8"/>
<path d="M84.946 32.9217V46.768C84.946 47.7082 84.5734 48.6102 83.9082 49.2736L68.6011 64.5808C67.9359 65.2459 67.034 65.6185 66.0954 65.6185H63.797L54.424 56.2455C54.3491 56.1706 54.4013 56.0435 54.5075 56.0435H62.8219C63.1876 56.0435 63.5393 55.899 63.8005 55.643C67.518 51.9882 71.2356 48.3333 74.9548 44.6802C75.2212 44.4173 75.3727 44.0586 75.3727 43.6842V33.1881C75.3727 32.9757 75.5451 32.8033 75.7575 32.8033H84.8294C84.8955 32.8033 84.9478 32.8555 84.9478 32.9217H84.946Z" fill="#D8D8D8"/>
<path d="M34.6209 65.6203H22.8293C21.8925 65.6203 20.994 65.2494 20.3289 64.5877L1.04474 45.4011C0.376106 44.7359 0 43.8322 0 42.8885V24.0101C0 21.7952 1.79521 20 4.01006 20H30.9208C32.8779 20 34.4659 21.5863 34.4659 23.5451V29.4584C34.4659 29.5245 34.4137 29.5768 34.3475 29.5768H10.2698C9.88671 29.5768 9.57504 29.8867 9.57504 30.2715V39.8187C9.57504 40.1896 9.72304 40.5465 9.98596 40.8077C18.2255 49.0124 26.4632 57.2154 34.7028 65.42C34.7776 65.4949 34.7254 65.622 34.6192 65.622L34.6209 65.6203Z" fill="#D8D8D8"/>
<path d="M85 24.0101V29.4566C85 29.5228 84.9478 29.575 84.8816 29.575H61.6135C60.8421 29.575 60.217 30.2001 60.217 30.9715V52.5785C60.217 52.709 60.1108 52.817 59.9785 52.817H51.0442L50.6403 52.413V26.6028C50.6403 22.9566 53.5969 20 57.243 20H80.9882C83.203 20 84.9983 21.7952 84.9983 24.0101H85Z" fill="#D8D8D8"/>
</svg>
